{"title":"Tool - Lateralus - HDCD remaster by MC Lurken 24-bit 96kHz flac","uid":7369114,"size":1713277136,"categoryP":"audio","categoryS":"flac","magnet":"?xt=urn:btih:55bd326fef93147d0eb84370efd86ba918d771fc&amp;dn=Tool+-+Lateralus+-+HDCD+remaster+by+MC+Lurken+24-bit+96kHz+flac&amp;tr=udp%3A%2F%2Ftracker.openbittorrent.com%3A80&amp;tr=udp%3A%2F%2Fopen.demonii.com%3A1337&amp;tr=udp%3A%2F%2Ftracker.coppersurfer.tk%3A6969&amp;tr=udp%3A%2F%2Fexodus.desync.com%3A6969","seeders":1,"leechers":1,"uploader":"beavis39","files":-1,"time":1340191185,"description":"Tool - Lateralus - HDCD remaster by MC Lurken (a.k.a. Beavis39)\n\n\n\n!!!!!!!!!!!!!THIS IS NOT AN OFFICIAL REMASTER, THIS IS A FAN RELEASE!!!!!!!!!!!!!!\n!!!!!!!!!!!!!THIS IS NOT AN OFFICIAL REMASTER, THIS IS A FAN RELEASE!!!!!!!!!!!!!!\n!!!!!!!!!!!!!THIS IS NOT AN OFFICIAL REMASTER, THIS IS A FAN RELEASE!!!!!!!!!!!!!!\n\n\n\n1 - The Grudge\n2 - Eon Blue Apocalypse\n3 - The Patient\n4 - Mantra\n5 - Schism\n6 - Parabol\n7 - Parabola\n8 - Ticks &amp; Leeches\n9 - Lateralus\n10 - Disposition\n11 - Reflection\n12 - Triad\n13 - Faaip de Oiad\n\n\n\n\nfoobar2000 1.1.11 / Dynamic Range Meter 1.1.1\nlog date: 2012-06-20 04:07:40\n\n--------------------------------------------------------------------------------\nAnalyzed: ? / ?\n--------------------------------------------------------------------------------\n\nDR         Peak         RMS     Duration Track\n--------------------------------------------------------------------------------\nDR9       -0.12 dB   -11.60 dB      8:36 ?-01 - The Grudge\nDR17      -8.00 dB   -30.17 dB      1:05 ?-02 - Eon Blue Apocalypse\nDR10      -0.25 dB   -13.13 dB      7:14 ?-03 - The Patient\nDR11      -9.15 dB   -23.34 dB      1:13 ?-04 - Mantra\nDR9       -0.07 dB   -12.34 dB      6:48 ?-05 - Schism\nDR9       -2.73 dB   -22.24 dB      3:04 ?-06 - Parabol\nDR10      -0.07 dB   -11.38 dB      6:04 ?-07 - Parabola\nDR10      -0.08 dB   -12.35 dB      8:10 ?-08 - Ticks &amp; Leeches\nDR9       -0.08 dB   -11.64 dB      9:24 ?-09 - Lateralus\nDR12      -3.05 dB   -19.20 dB      4:46 ?-10 - Disposition\nDR10      -0.36 dB   -12.75 dB     11:08 ?-11 - Reflection\nDR10      -0.07 dB   -13.12 dB      8:47 ?-12 - Triad\nDR10      -0.31 dB   -14.82 dB      2:39 ?-13 - Faaip de Oiad\n--------------------------------------------------------------------------------\n\nNumber of tracks:  13\nOfficial DR value: DR10\n\nSamplerate:        96000 Hz\nChannels:          2\nBits per sample:   24\nBitrate:           4608 kbps\nCodec:             PCM\n\n\n\nAbsolutely no thanks whatsoever to the Green Demon\n\n\nenjoy :)\n\n\n\n\n","torrent":{"xt":"urn:btih:55bd326fef93147d0eb84370efd86ba918d771fc","amp;dn":"Tool+-+Lateralus+-+HDCD+remaster+by+MC+Lurken+24-bit+96kHz+flac","amp;tr":["udp%3A%2F%2Ftracker.openbittorrent.com%3A80","udp%3A%2F%2Fopen.demonii.com%3A1337","udp%3A%2F%2Ftracker.coppersurfer.tk%3A6969","udp%3A%2F%2Fexodus.desync.com%3A6969"],"infoHash":"55bd326fef93147d0eb84370efd86ba918d771fc","infoHashBuffer":{"type":"Buffer","data":[85,189,50,111,239,147,20,125,14,184,67,112,239,216,107,169,24,215,113,252]},"announce":[],"urlList":[]}}